<?xml version="1.0" encoding="utf-8"?>
<!-- Generator: Adobe Illustrator 27.3.1, SVG Export Plug-In . SVG Version: 6.00 Build 0)  -->
<svg version="1.1" id="Layer_1" xmlns="http://www.w3.org/2000/svg" xmlns:xlink="http://www.w3.org/1999/xlink" x="0px" y="0px"
	 viewBox="0 0 1030.6 1035.1" style="enable-background:new 0 0 1030.6 1035.1;" xml:space="preserve">
<style type="text/css">
	.st0{fill:#18181A;}
	.st1{fill:#8A63FA;}
	.st2{fill:#1F1F23;}
	.st3{fill:#FFFFFF;}
</style>
<g>
	<path class="st0" d="M-4.4,1595.8l-25-56.1h11.1l20.2,47.1h-3.3l20.2-47.1h10.7l-25,56.1H-4.4z"/>
	<path class="st0" d="M47.5,1596.5c-4.5,0-8.4-0.9-11.6-2.6c-3.1-1.6-5.7-4.1-7.4-7.1s-2.6-6.9-2.6-11.1c0-4.2,0.9-7.8,2.5-11.1
		c1.6-3.1,3.9-5.5,6.9-7.3c3-1.8,6.4-2.6,10.3-2.6c3.8,0,7.1,0.9,9.7,2.5c2.6,1.6,4.6,3.9,6,7c1.4,3,2,6.5,2,10.5v2.6H33.9v-5.2
		h22.2l-1.4,1.1c0-3.7-0.9-6.5-2.4-8.5c-1.5-2-3.8-3-6.8-3c-2.2,0-4.1,0.6-5.6,1.6c-1.5,1-2.7,2.6-3.4,4.6c-0.9,2-1.2,4.3-1.2,7.1
		v1.1c0,4.3,1,7.6,3.1,9.7s5.2,3.1,9.2,3.1c2.3,0,4.4-0.3,6.4-0.9c2-0.6,3.9-1.6,5.7-3.1l3,6.7c-1.9,1.5-4.2,2.7-6.9,3.6
		C53.4,1596.1,50.5,1596.5,47.5,1596.5z"/>
	<path class="st0" d="M70.4,1595.8v-30.3c0-1.6-0.1-3.3-0.2-5s-0.3-3.3-0.5-5h9.6l0.9,8h-1c1.3-2.8,3.1-5,5.6-6.5
		c2.6-1.5,5.4-2.3,8.7-2.3c4.8,0,8.2,1.3,10.7,4c2.4,2.7,3.6,6.8,3.6,12.4v24.6h-9.9v-24.2c0-3.2-0.7-5.5-1.9-7
		c-1.2-1.4-3.1-2.1-5.6-2.1c-3.1,0-5.5,1-7.3,2.9c-1.8,1.9-2.7,4.5-2.7,7.7v22.7L70.4,1595.8L70.4,1595.8z"/>
	<path class="st0" d="M132.6,1596.5c-3.5,0-6.6-0.9-9.3-2.6c-2.7-1.6-4.8-4.1-6.2-7.1c-1.4-3.1-2.2-6.9-2.2-11.2s0.8-8.1,2.2-11.2
		c1.4-3.1,3.6-5.4,6.2-7.1c2.6-1.6,5.7-2.6,9.3-2.6c3.4,0,6.4,0.9,9,2.6c2.6,1.6,4.3,3.9,5.1,6.7h-0.9l0.9-8.4h9.5
		c-0.2,1.6-0.3,3.3-0.4,5c-0.2,1.7-0.2,3.3-0.2,5v30.2h-9.9l-0.1-8.2h1c-0.9,2.8-2.6,5-5.1,6.6
		C138.8,1595.7,135.8,1596.5,132.6,1596.5z M135.4,1588.9c3.1,0,5.6-1,7.6-3.2c1.9-2.2,2.9-5.5,2.9-9.9s-1-7.7-2.9-9.9
		c-1.9-2.2-4.4-3.2-7.6-3.2c-3.1,0-5.6,1-7.6,3.2c-1.9,2.2-2.9,5.4-2.9,9.9c0,4.5,1,7.7,2.9,9.9
		C129.6,1587.7,132.2,1588.9,135.4,1588.9z"/>
	<path class="st0" d="M168.8,1595.8v-32.7h-7.7v-7.5h10.5l-2.8,2.6v-6.1c0-5,1.2-8.8,3.7-11.3s6.2-3.8,11.1-3.8
		c1.1,0,2.4,0.1,3.7,0.3c1.3,0.2,2.5,0.5,3.3,0.9v7.8c-0.7-0.3-1.5-0.5-2.5-0.7c-1-0.2-1.9-0.3-2.8-0.3c-2,0-3.7,0.6-4.9,1.8
		s-1.8,3.1-1.8,5.8v4.8l-1.4-1.7h27.9v40.1h-9.9v-32.7h-16.5v32.7H168.8z M194.8,1548v-9.7h11.1v9.7H194.8z"/>
</g>
<g>
	<g>
		<path class="st1" d="M-101.1,1517.4L-235,1651.3c-4.2,4.2-4.2,11.4,0,15.6s11.4,4.2,15.6,0l133.4-133.4c4.2-4.2,4.2-11.4,0-15.6
			C-90.1,1513.2-96.9,1513.2-101.1,1517.4L-101.1,1517.4z"/>
		<path class="st1" d="M-110,1589.6l-64.2,64.2c-4.2,4.2-4.2,11.4,0,15.6c4.2,4.2,11.4,4.2,15.6,0l64.2-64.2
			c4.2-4.2,4.2-11.4,0-15.6C-98.6,1585.4-105.8,1585.4-110,1589.6L-110,1589.6L-110,1589.6z"/>
		<path class="st1" d="M-229.9,1609.1c3,0,5.9-1.3,7.6-3.4l64.2-64.2c4.2-4.2,4.2-11.4,0-15.6c-4.2-4.2-11.4-4.2-15.6,0l-63.8,64.2
			c-4.2,4.2-4.2,11.4,0,15.6C-235.8,1607.8-232.8,1609.1-229.9,1609.1z"/>
		<path class="st1" d="M-125.2,1668.6l-28.3,28.3c-4.2,4.2-4.2,11.4,0,15.6c4.2,4.2,11.4,4.2,15.6,0l28.3-28.3
			c4.2-4.2,4.2-11.4,0-15.6C-113.8,1664.4-121,1664.4-125.2,1668.6L-125.2,1668.6z"/>
		<path class="st1" d="M-237.1,1541.1c-4.2-4.2-11.4-4.2-15.6,0l0,0l-28.3,28.7c-4.2,4.2-4.2,11.4,0,15.6s11.4,4.2,15.6,0l28.3-28.3
			C-232.8,1552.5-232.8,1545.3-237.1,1541.1L-237.1,1541.1z"/>
		<path class="st2" d="M192.9,1640.2c-11.4-3-14.1-4.3-14.1-8.7v-0.3c0-3.3,3-5.7,8.4-5.7c5.7,0,11.1,2.4,17.1,6.5l7.6-10.8
			c-6.8-5.7-15.4-8.4-24.4-8.4c-13.6,0-23,7.9-23,19.8v0.3c0,13,8.4,16.8,21.7,20.1c11.1,3,13.3,4.6,13.3,8.4v0.3
			c0,3.8-3.5,6.2-9.5,6.2c-7.6,0-13.8-3-19.5-8.1L162,1670c7.6,6.8,17.6,10.6,27.9,10.6c14.1,0,24.1-7.3,24.1-20.3v-0.3
			C213.8,1648.3,206.2,1643.4,192.9,1640.2z"/>
		<path class="st2" d="M-6,1656.2c0,7.6-3.3,10.8-8.9,10.8c-4.6,0-8.4-2.4-11.9-6.5l-9.2,10c5.4,6.5,13.3,10,21.4,10
			c13.8,0,23.3-7.6,23.3-23.8v-43.1H-6.3L-6,1656.2L-6,1656.2z"/>
		<polygon class="st2" points="45.5,1652.9 76.4,1652.9 76.4,1639.9 45.5,1639.9 45.5,1626.6 80.5,1626.6 80.5,1613.6 31.1,1613.6
			31.1,1679.5 81,1679.5 81,1666.7 45.5,1666.7 		"/>
		<polygon class="st2" points="98.3,1627.2 118.1,1627.2 118.1,1679.5 132.8,1679.5 132.8,1627.2 152.8,1627.2 152.8,1613.6
			98.3,1613.6 		"/>
		<polygon class="st2" points="278.8,1613.6 224.1,1613.6 224.1,1627.2 244.1,1627.2 244.1,1679.5 258.8,1679.5 258.8,1627.2
			278.8,1627.2 		"/>
		<path class="st2" d="M391.3,1667.3c-11.1,0-19-9.5-19-20.6v-0.3c0-11.1,8.1-20.6,19-20.6c6.5,0,11.7,3,16.8,7.3l9.2-10.6
			c-6-6-13.6-10-26-10c-20.3,0-34.4,15.2-34.4,33.9v0.3c0,19,14.4,33.9,33.6,33.9c12.7,0,20.3-4.6,26.8-11.7l-9.2-9.2
			C403.2,1664.3,398.9,1667.3,391.3,1667.3z"/>
		<polygon class="st2" points="486.1,1613.6 470.2,1613.6 446.6,1646.7 470.2,1679.5 486.1,1679.5 462.8,1646.7 		"/>
		<rect x="431.1" y="1613.6" class="st2" width="14.4" height="65.9"/>
		<path class="st2" d="M306.5,1614.2l-27.9,65.3h14.6l5.7-13.6h28.2l5.7,13.6h14.9l-27.9-65.3H306.5z M303.8,1654l9.2-23l9.2,23
			H303.8z"/>
	</g>
</g>
<g>
	<g>
		<path class="st1" d="M-1130.5,822.2L-1276,967.7c-4.6,4.6-4.6,12.4,0,17s12.4,4.6,17,0l145.1-145.1c4.6-4.6,4.6-12.4,0-17
			C-1118.5,817.6-1125.9,817.6-1130.5,822.2L-1130.5,822.2z"/>
		<path class="st1" d="M-1140.1,900.7l-69.8,69.8c-4.6,4.6-4.6,12.4,0,17s12.4,4.6,17,0l69.8-69.8c4.6-4.6,4.6-12.4,0-17
			S-1135.5,896.1-1140.1,900.7L-1140.1,900.7L-1140.1,900.7z"/>
		<path class="st1" d="M-1270.5,921.8c3.2,0,6.4-1.4,8.3-3.7l69.8-69.8c4.6-4.6,4.6-12.4,0-17c-4.6-4.6-12.4-4.6-17,0l-69.3,69.8
			c-4.6,4.6-4.6,12.4,0,17C-1276.9,920.4-1273.7,921.8-1270.5,921.8z"/>
		<path class="st1" d="M-1156.6,986.5l-30.8,30.8c-4.6,4.6-4.6,12.4,0,17c4.6,4.6,12.4,4.6,17,0l30.8-30.8c4.6-4.6,4.6-12.4,0-17
			S-1152,982-1156.6,986.5L-1156.6,986.5z"/>
		<path class="st1" d="M-1278.3,847.9c-4.6-4.6-12.4-4.6-17,0l0,0l-30.8,31.2c-4.6,4.6-4.6,12.4,0,17c4.6,4.6,12.4,4.6,17,0
			l30.8-30.8C-1273.7,860.3-1273.7,852.5-1278.3,847.9L-1278.3,847.9z"/>
	</g>
</g>
<text transform="matrix(1 0 0 1 -1047.6636 1009.1564)"><tspan x="0" y="0" class="st3" style="font-size:133.1804px; letter-spacing:-7;">Je</tspan><tspan x="96" y="0" class="st3" style="font-size:133.1804px; letter-spacing:-2;">t</tspan><tspan x="136.5" y="0" class="st3" style="font-size:133.1804px; letter-spacing:-3;">s</tspan><tspan x="198.7" y="0" class="st3" style="font-size:133.1804px; letter-spacing:-2;">t</tspan><tspan x="239.2" y="0" class="st3" style="font-size:133.1804px; letter-spacing:-7;">ac</tspan><tspan x="365.7" y="0" class="st3" style="font-size:133.1804px;">k </tspan><tspan x="463.2" y="0" class="st3" style="font-size:133.1804px; letter-spacing:-7;">C</tspan><tspan x="547" y="0" class="st3" style="font-size:133.1804px; letter-spacing:-7;">onsu</tspan><tspan x="804.8" y="0" class="st3" style="font-size:133.1804px; letter-spacing:-2;">l</tspan><tspan x="831.2" y="0" class="st3" style="font-size:133.1804px;">t</tspan></text>
<g>
	<path class="st3" d="M-1022.6,875.7l-29.4-66h13l23.7,55.4h-3.9l23.7-55.4h12.6l-29.4,66H-1022.6z"/>
	<path class="st3" d="M-961.6,876.5c-5.3,0-9.9-1-13.6-3c-3.7-1.9-6.7-4.8-8.7-8.4S-987,857-987,852c0-4.9,1-9.2,2.9-13
		c1.9-3.6,4.6-6.5,8.1-8.6c3.5-2.1,7.5-3.1,12.1-3.1c4.5,0,8.4,1,11.4,2.9c3.1,1.9,5.4,4.6,7,8.2c1.6,3.5,2.4,7.6,2.4,12.3v3.1
		h-34.5v-6.1h26.1l-1.6,1.3c0-4.3-1-7.7-2.8-10c-1.8-2.3-4.5-3.5-8-3.5c-2.6,0-4.8,0.7-6.6,1.9s-3.2,3.1-4,5.4
		c-1,2.3-1.4,5.1-1.4,8.4v1.3c0,5.1,1.2,8.9,3.7,11.4s6.1,3.7,10.8,3.7c2.7,0,5.2-0.4,7.5-1.1c2.3-0.7,4.6-1.9,6.7-3.6l3.5,7.9
		c-2.2,1.8-4.9,3.2-8.1,4.2C-954.7,876-958.1,876.5-961.6,876.5z"/>
	<path class="st3" d="M-934.7,875.7v-35.6c0-1.9-0.1-3.9-0.2-5.9c-0.1-2-0.3-3.9-0.6-5.9h11.3l1,9.4h-1.2c1.5-3.3,3.7-5.9,6.6-7.6
		c3-1.8,6.3-2.7,10.2-2.7c5.6,0,9.7,1.5,12.6,4.7c2.8,3.2,4.2,8,4.2,14.6v28.9h-11.7v-28.4c0-3.8-0.8-6.5-2.2-8.2
		c-1.4-1.6-3.6-2.5-6.6-2.5c-3.6,0-6.5,1.2-8.6,3.4c-2.1,2.2-3.2,5.3-3.2,9v26.7L-934.7,875.7L-934.7,875.7z"/>
	<path class="st3" d="M-861.5,876.5c-4.1,0-7.8-1-10.9-3c-3.2-1.9-5.6-4.8-7.3-8.4c-1.7-3.6-2.6-8.1-2.6-13.2
		c0-5.1,0.9-9.5,2.6-13.2c1.7-3.6,4.2-6.4,7.3-8.4c3.1-1.9,6.7-3,10.9-3c4,0,7.5,1,10.6,3c3.1,1.9,5,4.6,6,7.9h-1.1l1.1-9.9h11.2
		c-0.2,1.9-0.4,3.9-0.5,5.9c-0.2,2-0.2,3.9-0.2,5.9v35.5h-11.7l-0.1-9.7h1.2c-1,3.3-3.1,5.9-6,7.8
		C-854.2,875.6-857.7,876.5-861.5,876.5z M-858.2,867.6c3.6,0,6.6-1.2,8.9-3.8c2.2-2.6,3.4-6.5,3.4-11.7s-1.2-9.1-3.4-11.7
		c-2.2-2.6-5.2-3.8-8.9-3.8c-3.6,0-6.6,1.2-8.9,3.8c-2.2,2.6-3.4,6.4-3.4,11.7s1.2,9.1,3.4,11.7C-865,866.2-862,867.6-858.2,867.6z"
		/>
	<path class="st3" d="M-818.9,875.7v-38.5h-9.1v-8.8h12.4l-3.3,3v-7.2c0-5.9,1.4-10.3,4.4-13.3s7.3-4.5,13-4.5
		c1.3,0,2.8,0.1,4.3,0.3c1.5,0.2,2.9,0.6,3.9,1.1v9.2c-0.8-0.3-1.8-0.6-2.9-0.8c-1.2-0.2-2.2-0.3-3.3-0.3c-2.4,0-4.3,0.7-5.8,2.1
		c-1.5,1.4-2.1,3.6-2.1,6.8v5.7l-1.7-2h32.8v47.2H-788v-38.5h-19.4v38.5H-818.9z M-788.4,819.5v-11.4h13.1v11.4H-788.4z"/>
</g>
<g>
	<g>
		<path class="st1" d="M-86.9,1906.4L-232.4,2052c-4.6,4.6-4.6,12.4,0,17c4.6,4.6,12.4,4.6,17,0l145.1-145.1c4.6-4.6,4.6-12.4,0-17
			C-74.9,1901.8-82.3,1901.8-86.9,1906.4L-86.9,1906.4z"/>
		<path class="st1" d="M-96.5,1984.9l-69.8,69.8c-4.6,4.6-4.6,12.4,0,17c4.6,4.6,12.4,4.6,17,0l69.8-69.8c4.6-4.6,4.6-12.4,0-17
			S-91.9,1980.3-96.5,1984.9L-96.5,1984.9L-96.5,1984.9z"/>
		<path class="st1" d="M-226.9,2006c3.2,0,6.4-1.4,8.3-3.7l69.8-69.8c4.6-4.6,4.6-12.4,0-17s-12.4-4.6-17,0l-69.3,69.8
			c-4.6,4.6-4.6,12.4,0,17C-233.4,2004.7-230.1,2006-226.9,2006z"/>
		<path class="st1" d="M-113.1,2070.8l-30.8,30.8c-4.6,4.6-4.6,12.4,0,17c4.6,4.6,12.4,4.6,17,0l30.8-30.8c4.6-4.6,4.6-12.4,0-17
			C-100.7,2066.2-108.5,2066.2-113.1,2070.8L-113.1,2070.8z"/>
		<path class="st1" d="M-234.7,1932.1c-4.6-4.6-12.4-4.6-17,0l0,0l-30.8,31.2c-4.6,4.6-4.6,12.4,0,17c4.6,4.6,12.4,4.6,17,0
			l30.8-30.8C-230.1,1944.5-230.1,1936.7-234.7,1932.1L-234.7,1932.1z"/>
	</g>
</g>
<text transform="matrix(1 0 0 1 -4.0893 2093.3894)"><tspan x="0" y="0" class="st3" style="font-size:133.1804px; letter-spacing:-7;">Je</tspan><tspan x="96" y="0" class="st3" style="font-size:133.1804px; letter-spacing:-2;">t</tspan><tspan x="136.5" y="0" class="st3" style="font-size:133.1804px; letter-spacing:-3;">s</tspan><tspan x="198.7" y="0" class="st3" style="font-size:133.1804px; letter-spacing:-2;">t</tspan><tspan x="239.2" y="0" class="st3" style="font-size:133.1804px; letter-spacing:-7;">ac</tspan><tspan x="365.7" y="0" class="st3" style="font-size:133.1804px;">k</tspan></text>
<g>
	<path class="st3" d="M21,1959.9l-29.4-66h13l23.7,55.4h-3.9l23.7-55.4h12.6l-29.4,66H21z"/>
	<path class="st3" d="M82,1960.7c-5.3,0-9.9-1-13.6-3c-3.7-1.9-6.7-4.8-8.7-8.4s-3.1-8.1-3.1-13.1c0-4.9,1-9.2,2.9-13
		c1.9-3.6,4.6-6.5,8.1-8.6c3.5-2.1,7.5-3.1,12.1-3.1c4.5,0,8.4,1,11.4,2.9c3.1,1.9,5.4,4.6,7,8.2c1.6,3.5,2.4,7.6,2.4,12.3v3.1H66
		v-6.1h26.1l-1.6,1.3c0-4.3-1-7.7-2.8-10c-1.8-2.3-4.5-3.5-8-3.5c-2.6,0-4.8,0.7-6.6,1.9c-1.8,1.2-3.2,3.1-4,5.4
		c-1,2.3-1.4,5.1-1.4,8.4v1.3c0,5.1,1.2,8.9,3.7,11.4s6.1,3.7,10.8,3.7c2.7,0,5.2-0.4,7.5-1.1s4.6-1.9,6.7-3.6l3.5,7.9
		c-2.2,1.8-4.9,3.2-8.1,4.2C88.9,1960.2,85.5,1960.7,82,1960.7z"/>
	<path class="st3" d="M108.9,1959.9v-35.6c0-1.9-0.1-3.9-0.2-5.9s-0.3-3.9-0.6-5.9h11.3l1,9.4h-1.2c1.5-3.3,3.7-5.9,6.6-7.6
		c3-1.8,6.3-2.7,10.2-2.7c5.6,0,9.7,1.5,12.6,4.7c2.8,3.2,4.2,8,4.2,14.6v28.9h-11.7v-28.4c0-3.8-0.8-6.5-2.2-8.2
		c-1.4-1.6-3.6-2.5-6.6-2.5c-3.6,0-6.5,1.2-8.6,3.4c-2.1,2.2-3.2,5.3-3.2,9v26.7L108.9,1959.9L108.9,1959.9z"/>
	<path class="st3" d="M182.1,1960.7c-4.1,0-7.8-1-10.9-3c-3.2-1.9-5.6-4.8-7.3-8.4c-1.7-3.6-2.6-8.1-2.6-13.2
		c0-5.1,0.9-9.5,2.6-13.2c1.7-3.6,4.2-6.4,7.3-8.4c3.1-1.9,6.7-3,10.9-3c4,0,7.5,1,10.6,3c3.1,1.9,5,4.6,6,7.9h-1.1l1.1-9.9h11.2
		c-0.2,1.9-0.4,3.9-0.5,5.9c-0.2,2-0.2,3.9-0.2,5.9v35.5h-11.7l-0.1-9.7h1.2c-1,3.3-3.1,5.9-6,7.8
		C189.4,1959.8,185.9,1960.7,182.1,1960.7z M185.4,1951.8c3.6,0,6.6-1.2,8.9-3.8c2.2-2.6,3.4-6.5,3.4-11.7s-1.2-9.1-3.4-11.7
		c-2.2-2.6-5.2-3.8-8.9-3.8c-3.6,0-6.6,1.2-8.9,3.8c-2.2,2.6-3.4,6.4-3.4,11.7s1.2,9.1,3.4,11.7
		C178.6,1950.4,181.6,1951.8,185.4,1951.8z"/>
	<path class="st3" d="M224.7,1959.9v-38.5h-9.1v-8.8H228l-3.3,3v-7.2c0-5.9,1.4-10.3,4.4-13.3s7.3-4.5,13-4.5c1.3,0,2.8,0.1,4.3,0.3
		c1.5,0.2,2.9,0.6,3.9,1.1v9.2c-0.8-0.3-1.8-0.6-2.9-0.8c-1.2-0.2-2.2-0.3-3.3-0.3c-2.4,0-4.3,0.7-5.8,2.1s-2.1,3.6-2.1,6.8v5.7
		l-1.7-2h32.8v47.2h-11.7v-38.5h-19.4v38.5H224.7z M255.2,1903.7v-11.4h13.1v11.4H255.2z"/>
</g>
<g>
	<g>
		<path class="st1" d="M-86.9,1189.8l-145.5,145.5c-4.6,4.6-4.6,12.4,0,17s12.4,4.6,17,0l145.1-145.1c4.6-4.6,4.6-12.4,0-17
			C-74.9,1185.2-82.3,1185.2-86.9,1189.8L-86.9,1189.8z"/>
		<path class="st1" d="M-96.5,1268.3l-69.8,69.8c-4.6,4.6-4.6,12.4,0,17c4.6,4.6,12.4,4.6,17,0l69.8-69.8c4.6-4.6,4.6-12.4,0-17
			S-91.9,1263.7-96.5,1268.3L-96.5,1268.3L-96.5,1268.3z"/>
		<path class="st1" d="M-226.9,1289.4c3.2,0,6.4-1.4,8.3-3.7l69.8-69.8c4.6-4.6,4.6-12.4,0-17s-12.4-4.6-17,0l-69.3,69.8
			c-4.6,4.6-4.6,12.4,0,17C-233.4,1288-230.1,1289.4-226.9,1289.4z"/>
		<path class="st1" d="M-113.1,1354.2l-30.8,30.8c-4.6,4.6-4.6,12.4,0,17s12.4,4.6,17,0l30.8-30.8c4.6-4.6,4.6-12.4,0-17
			S-108.5,1349.6-113.1,1354.2L-113.1,1354.2z"/>
		<path class="st1" d="M-234.7,1215.5c-4.6-4.6-12.4-4.6-17,0l0,0l-30.8,31.2c-4.6,4.6-4.6,12.4,0,17c4.6,4.6,12.4,4.6,17,0
			l30.8-30.8C-230.1,1227.9-230.1,1220.1-234.7,1215.5L-234.7,1215.5z"/>
	</g>
</g>
<text transform="matrix(1 0 0 1 -4.0893 1376.7792)"><tspan x="0" y="0" class="st2" style="font-size:133.1804px; letter-spacing:-7;">Je</tspan><tspan x="96" y="0" class="st2" style="font-size:133.1804px; letter-spacing:-2;">t</tspan><tspan x="136.5" y="0" class="st2" style="font-size:133.1804px; letter-spacing:-3;">s</tspan><tspan x="198.7" y="0" class="st2" style="font-size:133.1804px; letter-spacing:-2;">t</tspan><tspan x="239.2" y="0" class="st2" style="font-size:133.1804px; letter-spacing:-7;">ac</tspan><tspan x="365.7" y="0" class="st2" style="font-size:133.1804px;">k </tspan><tspan x="463.2" y="0" class="st2" style="font-size:133.1804px; letter-spacing:-7;">C</tspan><tspan x="547" y="0" class="st2" style="font-size:133.1804px; letter-spacing:-7;">onsu</tspan><tspan x="804.8" y="0" class="st2" style="font-size:133.1804px; letter-spacing:-2;">l</tspan><tspan x="831.2" y="0" class="st2" style="font-size:133.1804px;">t</tspan></text>
<g>
	<path class="st2" d="M21,1243.3l-29.4-66h13l23.7,55.4h-3.9l23.7-55.4h12.6l-29.4,66H21z"/>
	<path class="st2" d="M82,1244.1c-5.3,0-9.9-1-13.6-3c-3.7-1.9-6.7-4.8-8.7-8.4c-2-3.6-3.1-8.1-3.1-13.1c0-4.9,1-9.2,2.9-13
		c1.9-3.6,4.6-6.5,8.1-8.6s7.5-3.1,12.1-3.1c4.5,0,8.4,1,11.4,2.9c3.1,1.9,5.4,4.6,7,8.2c1.6,3.5,2.4,7.6,2.4,12.3v3.1H66v-6.1h26.1
		l-1.6,1.3c0-4.3-1-7.7-2.8-10c-1.8-2.3-4.5-3.5-8-3.5c-2.6,0-4.8,0.7-6.6,1.9c-1.8,1.2-3.2,3.1-4,5.4c-1,2.3-1.4,5.1-1.4,8.4v1.3
		c0,5.1,1.2,8.9,3.7,11.4s6.1,3.7,10.8,3.7c2.7,0,5.2-0.4,7.5-1.1c2.3-0.7,4.6-1.9,6.7-3.6l3.5,7.9c-2.2,1.8-4.9,3.2-8.1,4.2
		C88.9,1243.6,85.5,1244.1,82,1244.1z"/>
	<path class="st2" d="M108.9,1243.3v-35.6c0-1.9-0.1-3.9-0.2-5.9s-0.3-3.9-0.6-5.9h11.3l1,9.4h-1.2c1.5-3.3,3.7-5.9,6.6-7.6
		c3-1.8,6.3-2.7,10.2-2.7c5.6,0,9.7,1.5,12.6,4.7c2.8,3.2,4.2,8,4.2,14.6v28.9h-11.7v-28.4c0-3.8-0.8-6.5-2.2-8.2
		c-1.4-1.6-3.6-2.5-6.6-2.5c-3.6,0-6.5,1.2-8.6,3.4s-3.2,5.3-3.2,9v26.7h-11.6V1243.3z"/>
	<path class="st2" d="M182.1,1244.1c-4.1,0-7.8-1-10.9-3c-3.2-1.9-5.6-4.8-7.3-8.4c-1.7-3.6-2.6-8.1-2.6-13.2s0.9-9.5,2.6-13.2
		c1.7-3.6,4.2-6.4,7.3-8.4c3.1-1.9,6.7-3,10.9-3c4,0,7.5,1,10.6,3c3.1,1.9,5,4.6,6,7.9h-1.1l1.1-9.9h11.2c-0.2,1.9-0.4,3.9-0.5,5.9
		c-0.2,2-0.2,3.9-0.2,5.9v35.5h-11.7l-0.1-9.7h1.2c-1,3.3-3.1,5.9-6,7.8C189.4,1243.2,185.9,1244.1,182.1,1244.1z M185.4,1235.2
		c3.6,0,6.6-1.2,8.9-3.8c2.2-2.6,3.4-6.5,3.4-11.7c0-5.2-1.2-9.1-3.4-11.7c-2.2-2.6-5.2-3.8-8.9-3.8c-3.6,0-6.6,1.2-8.9,3.8
		c-2.2,2.6-3.4,6.4-3.4,11.7c0,5.3,1.2,9.1,3.4,11.7C178.6,1233.8,181.6,1235.2,185.4,1235.2z"/>
	<path class="st2" d="M224.7,1243.3v-38.5h-9.1v-8.8H228l-3.3,3v-7.2c0-5.9,1.4-10.3,4.4-13.3s7.3-4.5,13-4.5c1.3,0,2.8,0.1,4.3,0.3
		c1.5,0.2,2.9,0.6,3.9,1.1v9.2c-0.8-0.3-1.8-0.6-2.9-0.8c-1.2-0.2-2.2-0.3-3.3-0.3c-2.4,0-4.3,0.7-5.8,2.1s-2.1,3.6-2.1,6.8v5.7
		l-1.7-2h32.8v47.2h-11.7v-38.5h-19.4v38.5H224.7z M255.2,1187.1v-11.4h13.1v11.4H255.2z"/>
</g>
<g>
	<g>
		<path class="st1" d="M875.9,81.1L289.7,667.3c-18.5,18.5-18.5,49.9,0,68.4c18.5,18.5,49.9,18.5,68.4,0l584.4-584.4
			c18.5-18.5,18.5-49.9,0-68.4C924,62.6,894.4,62.6,875.9,81.1L875.9,81.1z"/>
		<path class="st1" d="M837.1,397.3L556,678.4c-18.5,18.5-18.5,49.9,0,68.4c18.5,18.5,49.9,18.5,68.4,0l281.1-281.1
			c18.5-18.5,18.5-49.9,0-68.4C887,378.8,855.6,378.8,837.1,397.3L837.1,397.3L837.1,397.3z"/>
		<path class="st1" d="M311.9,482.4c12.9,0,25.9-5.5,33.3-14.8l281.1-281.1c18.5-18.5,18.5-49.9,0-68.4c-18.5-18.5-49.9-18.5-68.4,0
			L278.6,399.2c-18.5,18.5-18.5,49.9,0,68.4C286,476.9,298.9,482.4,311.9,482.4z"/>
		<path class="st1" d="M770.5,743.2L646.6,867.1c-18.5,18.5-18.5,49.9,0,68.4s49.9,18.5,68.4,0L839,811.6
			c18.5-18.5,18.5-49.9,0-68.4C820.5,724.7,789,724.7,770.5,743.2L770.5,743.2z"/>
		<path class="st1" d="M280.5,184.7c-18.5-18.5-49.9-18.5-68.4,0l0,0L88.1,310.4c-18.5,18.5-18.5,49.9,0,68.4
			c18.5,18.5,49.9,18.5,68.4,0l123.9-123.9C298.9,234.6,298.9,203.2,280.5,184.7L280.5,184.7z"/>
	</g>
</g>
</svg>
