<?xml version="1.0" encoding="utf-8"?>
<!-- Generator: Adobe Illustrator 27.3.1, SVG Export Plug-In . SVG Version: 6.00 Build 0)  -->
<svg version="1.1" id="Layer_1" xmlns="http://www.w3.org/2000/svg" xmlns:xlink="http://www.w3.org/1999/xlink" x="0px" y="0px"
	 viewBox="0 0 1030.6 1035.1" style="enable-background:new 0 0 1030.6 1035.1;" xml:space="preserve">
<style type="text/css">
	.st0{fill:#FFFFFF;}
</style>
<g>
	<g>
		<path class="st0" d="M875.9,81.1L289.7,667.3c-18.5,18.5-18.5,49.9,0,68.4s49.9,18.5,68.4,0l584.4-584.4
			c18.5-18.5,18.5-49.9,0-68.4C924,62.6,894.4,62.6,875.9,81.1L875.9,81.1z"/>
		<path class="st0" d="M837.1,397.3L556,678.4c-18.5,18.5-18.5,49.9,0,68.4s49.9,18.5,68.4,0l281.1-281.1
			c18.5-18.5,18.5-49.9,0-68.4C887,378.8,855.6,378.8,837.1,397.3L837.1,397.3L837.1,397.3z"/>
		<path class="st0" d="M311.9,482.4c12.9,0,25.9-5.5,33.3-14.8l281.1-281.1c18.5-18.5,18.5-49.9,0-68.4s-49.9-18.5-68.4,0
			L278.6,399.2c-18.5,18.5-18.5,49.9,0,68.4C286,476.9,298.9,482.4,311.9,482.4z"/>
		<path class="st0" d="M770.5,743.2L646.6,867.1c-18.5,18.5-18.5,49.9,0,68.4s49.9,18.5,68.4,0l124-123.9
			c18.5-18.5,18.5-49.9,0-68.4C820.5,724.7,789,724.7,770.5,743.2L770.5,743.2z"/>
		<path class="st0" d="M280.5,184.7c-18.5-18.5-49.9-18.5-68.4,0l0,0l-124,125.7c-18.5,18.5-18.5,49.9,0,68.4s49.9,18.5,68.4,0
			l123.9-123.9C298.9,234.6,298.9,203.2,280.5,184.7L280.5,184.7z"/>
	</g>
</g>
</svg>
